<mxfile host="app.diagrams.net" modified="2021-05-13T16:39:09.264Z" agent="5.0 (X11; Linux x86_64) AppleWebKit/537.36 (KHTML, like Gecko) Chrome/89.0.4389.114 Safari/537.36" etag="X2UXRTz7cXTX6L60PARj" version="14.6.12" type="github">
  <diagram id="l8Hi1uYMy0TQVYjPvtuB" name="Page-1">
    <mxGraphModel dx="782" dy="408" grid="1" gridSize="10" guides="1" tooltips="1" connect="1" arrows="1" fold="1" page="1" pageScale="1" pageWidth="827" pageHeight="1169" math="0" shadow="0">
      <root>
        <mxCell id="0" />
        <mxCell id="1" parent="0" />
        <mxCell id="gXLv3gAdqrJArj2_70os-3" value="" style="edgeStyle=orthogonalEdgeStyle;rounded=0;orthogonalLoop=1;jettySize=auto;html=1;" edge="1" parent="1" source="gXLv3gAdqrJArj2_70os-1" target="gXLv3gAdqrJArj2_70os-2">
          <mxGeometry relative="1" as="geometry" />
        </mxCell>
        <mxCell id="gXLv3gAdqrJArj2_70os-1" value="&lt;font face=&quot;Times New Roman&quot; style=&quot;font-size: 16px&quot;&gt;Compcert C&lt;/font&gt;" style="rounded=1;whiteSpace=wrap;html=1;" vertex="1" parent="1">
          <mxGeometry x="130" y="70" width="120" height="60" as="geometry" />
        </mxCell>
        <mxCell id="gXLv3gAdqrJArj2_70os-5" value="" style="edgeStyle=orthogonalEdgeStyle;rounded=0;orthogonalLoop=1;jettySize=auto;html=1;" edge="1" parent="1" source="gXLv3gAdqrJArj2_70os-2" target="gXLv3gAdqrJArj2_70os-4">
          <mxGeometry relative="1" as="geometry" />
        </mxCell>
        <mxCell id="gXLv3gAdqrJArj2_70os-2" value="&lt;font face=&quot;times new roman&quot;&gt;&lt;span style=&quot;font-size: 16px&quot;&gt;Clight&lt;/span&gt;&lt;/font&gt;" style="rounded=1;whiteSpace=wrap;html=1;" vertex="1" parent="1">
          <mxGeometry x="330" y="70" width="120" height="60" as="geometry" />
        </mxCell>
        <mxCell id="gXLv3gAdqrJArj2_70os-7" value="" style="edgeStyle=orthogonalEdgeStyle;rounded=0;orthogonalLoop=1;jettySize=auto;html=1;" edge="1" parent="1" source="gXLv3gAdqrJArj2_70os-4" target="gXLv3gAdqrJArj2_70os-6">
          <mxGeometry relative="1" as="geometry" />
        </mxCell>
        <mxCell id="gXLv3gAdqrJArj2_70os-4" value="&lt;font face=&quot;times new roman&quot;&gt;&lt;span style=&quot;font-size: 16px&quot;&gt;C#minor&lt;/span&gt;&lt;/font&gt;" style="rounded=1;whiteSpace=wrap;html=1;" vertex="1" parent="1">
          <mxGeometry x="530" y="70" width="120" height="60" as="geometry" />
        </mxCell>
        <mxCell id="gXLv3gAdqrJArj2_70os-9" value="" style="edgeStyle=orthogonalEdgeStyle;rounded=0;orthogonalLoop=1;jettySize=auto;html=1;" edge="1" parent="1" source="gXLv3gAdqrJArj2_70os-6" target="gXLv3gAdqrJArj2_70os-8">
          <mxGeometry relative="1" as="geometry" />
        </mxCell>
        <mxCell id="gXLv3gAdqrJArj2_70os-6" value="&lt;span style=&quot;font-family: &amp;#34;times new roman&amp;#34; ; font-size: 16px&quot;&gt;Cminor&lt;/span&gt;" style="rounded=1;whiteSpace=wrap;html=1;" vertex="1" parent="1">
          <mxGeometry x="530" y="210" width="120" height="60" as="geometry" />
        </mxCell>
        <mxCell id="gXLv3gAdqrJArj2_70os-11" value="" style="edgeStyle=orthogonalEdgeStyle;rounded=0;orthogonalLoop=1;jettySize=auto;html=1;" edge="1" parent="1" source="gXLv3gAdqrJArj2_70os-8" target="gXLv3gAdqrJArj2_70os-10">
          <mxGeometry relative="1" as="geometry" />
        </mxCell>
        <mxCell id="gXLv3gAdqrJArj2_70os-8" value="&lt;span style=&quot;font-family: &amp;#34;times new roman&amp;#34; ; font-size: 16px&quot;&gt;CminorSel&lt;/span&gt;" style="rounded=1;whiteSpace=wrap;html=1;" vertex="1" parent="1">
          <mxGeometry x="330" y="210" width="120" height="60" as="geometry" />
        </mxCell>
        <mxCell id="gXLv3gAdqrJArj2_70os-13" value="" style="edgeStyle=orthogonalEdgeStyle;rounded=0;orthogonalLoop=1;jettySize=auto;html=1;" edge="1" parent="1" source="gXLv3gAdqrJArj2_70os-10" target="gXLv3gAdqrJArj2_70os-12">
          <mxGeometry relative="1" as="geometry" />
        </mxCell>
        <mxCell id="gXLv3gAdqrJArj2_70os-25" style="edgeStyle=orthogonalEdgeStyle;rounded=0;orthogonalLoop=1;jettySize=auto;html=1;exitX=0.25;exitY=0;exitDx=0;exitDy=0;entryX=0.75;entryY=0;entryDx=0;entryDy=0;" edge="1" parent="1" source="gXLv3gAdqrJArj2_70os-10" target="gXLv3gAdqrJArj2_70os-10">
          <mxGeometry relative="1" as="geometry">
            <mxPoint x="250" y="190" as="targetPoint" />
            <Array as="points">
              <mxPoint x="170" y="170" />
              <mxPoint x="230" y="170" />
            </Array>
          </mxGeometry>
        </mxCell>
        <mxCell id="gXLv3gAdqrJArj2_70os-10" value="&lt;font face=&quot;Times New Roman&quot;&gt;&lt;span style=&quot;font-size: 16px&quot;&gt;RTL&lt;/span&gt;&lt;/font&gt;" style="rounded=1;whiteSpace=wrap;html=1;" vertex="1" parent="1">
          <mxGeometry x="130" y="210" width="120" height="60" as="geometry" />
        </mxCell>
        <mxCell id="gXLv3gAdqrJArj2_70os-15" value="" style="edgeStyle=orthogonalEdgeStyle;rounded=0;orthogonalLoop=1;jettySize=auto;html=1;" edge="1" parent="1" source="gXLv3gAdqrJArj2_70os-12" target="gXLv3gAdqrJArj2_70os-14">
          <mxGeometry relative="1" as="geometry" />
        </mxCell>
        <mxCell id="gXLv3gAdqrJArj2_70os-12" value="&lt;font face=&quot;Times New Roman&quot;&gt;&lt;span style=&quot;font-size: 16px&quot;&gt;LTL&lt;/span&gt;&lt;/font&gt;" style="rounded=1;whiteSpace=wrap;html=1;" vertex="1" parent="1">
          <mxGeometry x="130" y="350" width="120" height="60" as="geometry" />
        </mxCell>
        <mxCell id="gXLv3gAdqrJArj2_70os-17" value="" style="edgeStyle=orthogonalEdgeStyle;rounded=0;orthogonalLoop=1;jettySize=auto;html=1;" edge="1" parent="1" source="gXLv3gAdqrJArj2_70os-14" target="gXLv3gAdqrJArj2_70os-16">
          <mxGeometry relative="1" as="geometry" />
        </mxCell>
        <mxCell id="gXLv3gAdqrJArj2_70os-14" value="&lt;font face=&quot;Times New Roman&quot;&gt;&lt;span style=&quot;font-size: 16px&quot;&gt;Linear&lt;/span&gt;&lt;/font&gt;" style="rounded=1;whiteSpace=wrap;html=1;" vertex="1" parent="1">
          <mxGeometry x="330" y="350" width="120" height="60" as="geometry" />
        </mxCell>
        <mxCell id="gXLv3gAdqrJArj2_70os-16" value="&lt;font face=&quot;Times New Roman&quot;&gt;&lt;span style=&quot;font-size: 16px&quot;&gt;Mach&lt;/span&gt;&lt;/font&gt;" style="rounded=1;whiteSpace=wrap;html=1;" vertex="1" parent="1">
          <mxGeometry x="530" y="350" width="120" height="60" as="geometry" />
        </mxCell>
        <mxCell id="gXLv3gAdqrJArj2_70os-18" value="&lt;font face=&quot;Times New Roman&quot;&gt;&lt;span style=&quot;font-size: 16px&quot;&gt;Asm x86&lt;/span&gt;&lt;/font&gt;" style="rounded=0;whiteSpace=wrap;html=1;" vertex="1" parent="1">
          <mxGeometry x="690" y="290" width="100" height="50" as="geometry" />
        </mxCell>
        <mxCell id="gXLv3gAdqrJArj2_70os-19" value="&lt;font face=&quot;Times New Roman&quot;&gt;&lt;span style=&quot;font-size: 16px&quot;&gt;Asm ARM&lt;/span&gt;&lt;/font&gt;" style="rounded=0;whiteSpace=wrap;html=1;" vertex="1" parent="1">
          <mxGeometry x="690" y="355" width="100" height="50" as="geometry" />
        </mxCell>
        <mxCell id="gXLv3gAdqrJArj2_70os-20" value="&lt;font face=&quot;Times New Roman&quot;&gt;&lt;span style=&quot;font-size: 16px&quot;&gt;Asm PPL&lt;/span&gt;&lt;/font&gt;" style="rounded=0;whiteSpace=wrap;html=1;" vertex="1" parent="1">
          <mxGeometry x="690" y="420" width="100" height="50" as="geometry" />
        </mxCell>
        <mxCell id="gXLv3gAdqrJArj2_70os-21" value="" style="endArrow=classic;html=1;entryX=0;entryY=0.5;entryDx=0;entryDy=0;exitX=1;exitY=0.5;exitDx=0;exitDy=0;" edge="1" parent="1" source="gXLv3gAdqrJArj2_70os-16" target="gXLv3gAdqrJArj2_70os-18">
          <mxGeometry width="50" height="50" relative="1" as="geometry">
            <mxPoint x="640" y="380" as="sourcePoint" />
            <mxPoint x="690" y="330" as="targetPoint" />
          </mxGeometry>
        </mxCell>
        <mxCell id="gXLv3gAdqrJArj2_70os-22" value="" style="endArrow=classic;html=1;exitX=1;exitY=0.5;exitDx=0;exitDy=0;" edge="1" parent="1" source="gXLv3gAdqrJArj2_70os-16">
          <mxGeometry width="50" height="50" relative="1" as="geometry">
            <mxPoint x="660" y="430" as="sourcePoint" />
            <mxPoint x="690" y="380" as="targetPoint" />
          </mxGeometry>
        </mxCell>
        <mxCell id="gXLv3gAdqrJArj2_70os-23" value="" style="endArrow=classic;html=1;exitX=1;exitY=0.5;exitDx=0;exitDy=0;entryX=0;entryY=0.5;entryDx=0;entryDy=0;" edge="1" parent="1" source="gXLv3gAdqrJArj2_70os-16" target="gXLv3gAdqrJArj2_70os-20">
          <mxGeometry width="50" height="50" relative="1" as="geometry">
            <mxPoint x="470" y="300" as="sourcePoint" />
            <mxPoint x="520" y="250" as="targetPoint" />
          </mxGeometry>
        </mxCell>
        <mxCell id="gXLv3gAdqrJArj2_70os-26" value="&lt;font style=&quot;font-size: 12px&quot;&gt;部分简化&lt;/font&gt;" style="text;html=1;strokeColor=none;fillColor=none;align=center;verticalAlign=middle;whiteSpace=wrap;rounded=0;" vertex="1" parent="1">
          <mxGeometry x="450" y="70" width="80" height="20" as="geometry" />
        </mxCell>
        <mxCell id="gXLv3gAdqrJArj2_70os-27" value="&lt;font style=&quot;font-size: 13px&quot;&gt;指令选择&lt;/font&gt;" style="text;html=1;strokeColor=none;fillColor=none;align=center;verticalAlign=middle;whiteSpace=wrap;rounded=0;" vertex="1" parent="1">
          <mxGeometry x="460" y="210" width="60" height="20" as="geometry" />
        </mxCell>
        <mxCell id="gXLv3gAdqrJArj2_70os-28" value="&lt;font style=&quot;font-size: 13px&quot;&gt;CFG构建&lt;/font&gt;" style="text;html=1;strokeColor=none;fillColor=none;align=center;verticalAlign=middle;whiteSpace=wrap;rounded=0;" vertex="1" parent="1">
          <mxGeometry x="260" y="210" width="70" height="20" as="geometry" />
        </mxCell>
        <mxCell id="gXLv3gAdqrJArj2_70os-29" value="&lt;span style=&quot;font-size: 13px&quot;&gt;堆栈分配&lt;/span&gt;" style="text;html=1;strokeColor=none;fillColor=none;align=center;verticalAlign=middle;whiteSpace=wrap;rounded=0;" vertex="1" parent="1">
          <mxGeometry x="600" y="160" width="60" height="20" as="geometry" />
        </mxCell>
        <mxCell id="gXLv3gAdqrJArj2_70os-30" value="&lt;div style=&quot;text-align: center&quot;&gt;&lt;span style=&quot;font-size: 13px&quot;&gt;&lt;font face=&quot;helvetica&quot;&gt;寄存器分配&lt;/font&gt;&lt;/span&gt;&lt;/div&gt;&lt;div style=&quot;text-align: center&quot;&gt;&lt;span style=&quot;font-size: 13px&quot;&gt;&lt;font face=&quot;helvetica&quot;&gt;调用约定&lt;/font&gt;&lt;/span&gt;&lt;/div&gt;" style="text;whiteSpace=wrap;html=1;" vertex="1" parent="1">
          <mxGeometry x="210" y="290" width="80" height="30" as="geometry" />
        </mxCell>
        <mxCell id="gXLv3gAdqrJArj2_70os-31" value="&lt;span style=&quot;color: rgb(0 , 0 , 0) ; font-family: &amp;#34;helvetica&amp;#34; ; font-size: 13px ; font-style: normal ; font-weight: 400 ; letter-spacing: normal ; text-align: center ; text-indent: 0px ; text-transform: none ; word-spacing: 0px ; background-color: rgb(248 , 249 , 250) ; display: inline ; float: none&quot;&gt;CFG线性化&lt;/span&gt;" style="text;whiteSpace=wrap;html=1;" vertex="1" parent="1">
          <mxGeometry x="255" y="350" width="80" height="30" as="geometry" />
        </mxCell>
        <mxCell id="gXLv3gAdqrJArj2_70os-32" value="&lt;span style=&quot;font-size: 13px&quot;&gt;栈帧布局&lt;/span&gt;" style="text;html=1;strokeColor=none;fillColor=none;align=center;verticalAlign=middle;whiteSpace=wrap;rounded=0;" vertex="1" parent="1">
          <mxGeometry x="460" y="350" width="60" height="20" as="geometry" />
        </mxCell>
        <mxCell id="gXLv3gAdqrJArj2_70os-33" value="&lt;span style=&quot;font-size: 13px&quot;&gt;汇编代码生成&lt;/span&gt;" style="text;html=1;strokeColor=none;fillColor=none;align=center;verticalAlign=middle;whiteSpace=wrap;rounded=0;" vertex="1" parent="1">
          <mxGeometry x="620" y="320" width="60" height="20" as="geometry" />
        </mxCell>
      </root>
    </mxGraphModel>
  </diagram>
</mxfile>
